<?xml version="1.0" standalone="no"?>
<!DOCTYPE svg PUBLIC "-//W3C//DTD SVG 20010904//EN"
 "http://www.w3.org/TR/2001/REC-SVG-20010904/DTD/svg10.dtd">
<svg version="1.0" xmlns="http://www.w3.org/2000/svg"
 width="512.000000pt" height="512.000000pt" viewBox="0 0 512.000000 512.000000"
 preserveAspectRatio="xMidYMid meet">
// FFC107
<g transform="translate(0.000000,512.000000) scale(0.100000,-0.100000)"
fill="#518664" stroke="none">
<path d="M1848 4806 c-377 -172 -693 -318 -701 -324 -39 -33 -24 -100 27 -123
28 -13 -10 -29 774 326 l613 278 1202 -545 1202 -545 3 -133 c2 -104 0 -131
-10 -127 -13 5 -1133 511 -1941 878 -241 110 -446 199 -456 199 -10 0 -554
-243 -1210 -540 -656 -297 -1195 -540 -1197 -540 -3 0 -3 59 -2 132 l3 132
375 169 c206 93 385 178 398 190 25 24 29 63 7 94 -33 48 -44 44 -468 -147
-264 -119 -412 -192 -432 -211 l-30 -29 -3 -203 c-3 -198 -3 -203 20 -237 15
-23 38 -40 65 -50 40 -13 45 -13 110 14 37 16 74 30 81 33 9 4 12 -201 12
-1006 l0 -1012 25 -24 c29 -30 64 -32 96 -6 l24 19 5 1053 5 1054 515 233
c283 128 758 343 1055 478 364 165 546 243 560 239 11 -3 488 -218 1060 -478
l1040 -472 3 -1713 2 -1712 -209 0 -208 0 -6 48 c-3 26 -14 121 -23 212 -16
145 -21 168 -40 187 -30 30 -69 29 -99 -2 -30 -29 -30 -33 -5 -250 11 -93 20
-176 20 -182 0 -10 -127 -13 -600 -13 -452 0 -600 3 -600 12 0 6 27 262 60
567 65 597 78 666 139 764 l31 47 372 -2 373 -3 27 -50 c56 -101 68 -151 94
-379 13 -122 29 -231 34 -244 20 -47 97 -51 127 -6 14 23 14 42 -6 227 -25
225 -40 301 -76 391 -26 63 -23 75 20 76 38 0 125 49 169 95 27 28 53 68 66
103 20 52 22 71 17 232 -3 146 -8 186 -27 245 -61 191 -188 360 -343 459 l-56
36 24 36 c38 56 46 97 52 254 9 248 -26 392 -121 498 -34 37 -36 44 -36 105 0
131 -76 252 -197 312 -51 26 -69 29 -148 30 -77 0 -98 -4 -146 -26 -77 -36
-130 -87 -169 -161 -30 -55 -35 -75 -38 -152 -4 -85 -6 -91 -43 -140 -73 -96
-99 -203 -99 -412 0 -153 12 -232 46 -293 13 -24 24 -45 24 -47 0 -2 -26 -20
-57 -40 -130 -83 -254 -231 -312 -373 -48 -114 -64 -209 -65 -371 -1 -136 1
-148 25 -200 49 -104 127 -167 237 -191 29 -6 52 -12 52 -14 0 -1 -11 -27 -25
-56 -40 -89 -51 -160 -116 -756 l-62 -573 -258 0 -258 0 -12 42 c-6 24 -20 60
-30 80 -18 35 -19 64 -19 426 l0 389 43 5 c135 15 237 139 237 288 0 50 3 61
21 70 40 22 49 68 49 250 0 168 0 171 -25 195 -31 32 -74 33 -103 2 -21 -22
-22 -33 -22 -170 l0 -147 -100 0 -100 0 0 365 c0 352 -1 366 -20 385 -20 20
-74 27 -96 12 -23 -15 -34 -52 -34 -111 0 -34 -2 -61 -4 -61 -2 0 -30 16 -62
35 -90 55 -92 55 -198 -9 -52 -31 -100 -56 -106 -56 -6 0 -54 25 -106 56 -108
65 -112 65 -208 4 l-61 -39 -5 80 c-6 90 -19 109 -76 109 -23 0 -39 -8 -53
-26 -20 -26 -21 -38 -21 -360 l0 -334 -95 0 -95 0 0 408 c0 448 2 467 61 584
38 75 133 172 207 211 51 28 55 28 105 16 38 -10 66 -26 103 -61 76 -71 150
-102 246 -101 67 0 88 5 141 31 35 17 81 51 104 75 32 34 52 46 96 57 56 13
56 13 112 -21 112 -68 194 -168 236 -290 17 -51 23 -93 26 -204 5 -170 7 -181
38 -201 35 -23 81 -10 101 29 14 26 16 56 11 181 -4 126 -9 164 -31 231 -48
151 -138 272 -263 355 -43 29 -79 53 -80 54 -1 0 5 26 13 56 8 30 14 92 14
137 0 65 3 83 14 83 23 0 78 51 92 87 22 52 19 239 -5 283 -28 53 -62 73 -133
78 -60 5 -64 6 -121 63 -40 40 -85 72 -143 101 -82 40 -89 42 -199 46 -95 4
-125 1 -182 -16 -84 -26 -174 -83 -228 -144 -38 -43 -43 -45 -103 -50 -120 -8
-152 -57 -152 -229 0 -104 2 -119 23 -150 12 -19 39 -45 60 -58 l37 -24 1 -91
c0 -50 6 -109 13 -131 l12 -40 -71 -45 c-96 -63 -184 -162 -234 -264 -68 -136
-71 -161 -71 -682 0 -387 -2 -467 -15 -497 -19 -46 -20 -159 -1 -195 8 -15 23
-36 35 -46 21 -19 21 -23 21 -563 l0 -543 -195 0 -195 0 0 514 c0 504 0 514
-21 540 -28 36 -80 36 -108 0 -21 -26 -21 -35 -21 -591 l0 -564 25 -24 24 -25
2221 0 2221 0 24 25 25 24 0 1727 c0 1377 3 1725 13 1721 6 -3 43 -17 80 -33
65 -27 70 -27 110 -14 27 10 50 27 65 50 23 34 23 39 20 237 l-3 203 -30 29
c-20 20 -190 101 -510 246 -264 120 -671 304 -905 410 -234 106 -575 261 -759
344 -183 83 -343 151 -355 150 -11 0 -330 -141 -708 -313z m1765 -1032 c37
-26 96 -108 85 -119 -2 -2 -28 2 -58 10 -95 26 -237 17 -324 -20 -16 -7 -17
-5 -11 16 13 46 60 103 105 127 63 33 143 28 203 -14z m-1821 -24 c29 -11 70
-34 91 -51 l38 -31 -35 -38 c-61 -68 -73 -162 -30 -248 29 -58 89 -108 141
-118 l33 -6 0 -77 c0 -140 -28 -186 -121 -200 -41 -7 -58 -15 -74 -36 -45 -61
-85 -93 -129 -104 -75 -19 -153 8 -193 65 -37 54 -62 74 -93 74 -17 0 -45 6
-64 14 -49 20 -66 66 -66 174 l0 90 36 6 c49 10 138 97 153 151 22 82 7 153
-46 215 -19 22 -32 44 -28 50 9 14 90 61 133 76 58 21 192 18 254 -6z m-477
-215 c31 -30 32 -66 2 -100 -18 -22 -34 -27 -85 -32 l-62 -6 0 82 0 81 60 0
c51 0 65 -4 85 -25z m835 -56 l0 -81 -62 4 c-51 4 -65 9 -85 32 -30 35 -29 71
2 101 20 21 34 25 85 25 l60 0 0 -81z m1512 18 c89 -44 167 -141 183 -229 l7
-35 -44 -7 c-27 -4 -61 -1 -94 9 -50 15 -79 40 -161 139 -28 34 -76 35 -103 4
-91 -107 -126 -136 -178 -147 -103 -22 -122 1 -78 95 43 92 118 161 209 190
69 23 193 13 259 -19z m-122 -337 c74 -58 146 -84 238 -84 l82 0 0 -70 c-1
-147 -29 -201 -112 -212 -40 -6 -57 -15 -97 -54 -90 -88 -192 -88 -282 0 -40
39 -57 48 -97 54 -32 4 -56 14 -70 29 -27 29 -44 107 -40 188 l3 64 33 -3 c76
-8 199 35 267 92 17 14 32 25 34 26 2 0 20 -14 41 -30z m-242 -560 c20 -16 58
-39 85 -50 l47 -21 0 -214 0 -215 -50 0 c-27 0 -50 3 -50 8 0 4 -29 119 -64
255 -65 248 -65 248 -43 257 33 13 35 12 75 -20z m506 10 c5 -5 -18 -116 -54
-259 l-62 -251 -54 0 -54 0 0 213 0 213 53 22 c29 12 69 36 88 52 33 28 60 31
83 10z m-680 -297 l54 -211 -75 -4 c-64 -3 -78 -7 -94 -27 -25 -30 -24 -72 1
-99 20 -21 28 -22 220 -22 l200 0 0 -131 0 -130 -258 3 -259 3 -40 27 c-66 43
-78 81 -77 233 1 154 17 225 75 343 29 61 61 104 114 160 41 42 77 74 80 71 2
-3 29 -100 59 -216z m908 138 c129 -140 178 -277 178 -499 0 -153 -11 -187
-77 -232 l-36 -25 -256 0 -256 0 0 125 0 125 198 5 c182 5 200 7 213 24 8 11
14 34 14 51 0 48 -29 68 -104 73 l-63 4 49 197 c56 227 55 221 67 221 5 0 38
-31 73 -69z m-2486 -426 c51 -30 103 -55 115 -55 12 0 62 25 112 55 49 30 94
55 100 55 6 0 43 -21 84 -46 l73 -45 0 -60 c0 -32 -2 -59 -4 -59 -2 0 -35 18
-72 40 -38 22 -75 40 -83 40 -9 0 -57 -25 -107 -55 -51 -30 -98 -55 -104 -55
-6 0 -54 25 -106 56 -106 64 -113 64 -198 10 -28 -17 -57 -36 -63 -40 -10 -5
-13 8 -13 56 l0 63 78 47 c42 26 81 47 87 48 5 0 51 -25 101 -55z m0 -300 c51
-30 103 -55 115 -55 12 0 62 25 111 55 48 30 93 55 100 55 6 0 44 -21 85 -46
l73 -45 0 -160 0 -159 -360 0 -360 0 0 45 c0 25 -7 62 -15 82 -9 21 -15 67
-15 112 l0 76 78 47 c42 26 81 47 87 48 5 0 51 -25 101 -55z m-406 -265 c12
-12 20 -33 20 -55 l0 -35 -125 0 -125 0 0 39 c0 58 24 71 127 71 70 0 86 -3
103 -20z m1170 -75 c0 -75 -51 -145 -106 -145 -24 0 -24 2 -24 95 l0 95 65 0
65 0 0 -45z m-1230 -700 l0 -535 -45 0 -45 0 0 535 0 535 45 0 45 0 0 -535z
m480 122 l0 -414 -47 23 c-62 31 -152 39 -220 21 l-53 -14 0 398 0 399 160 0
160 0 0 -413z m470 17 l0 -396 -22 6 c-88 24 -215 10 -275 -30 l-23 -14 0 415
0 415 160 0 160 0 0 -396z m-592 -539 c56 -24 112 -86 112 -125 0 -6 -53 -10
-155 -10 l-155 0 0 49 c0 54 9 66 67 87 50 18 86 17 131 -1z m530 0 c47 -20
79 -50 103 -97 l19 -38 -185 0 c-122 0 -185 4 -185 10 0 19 27 64 52 87 54 50
130 65 196 38z"/>
</g>
</svg>
