<?xml version="1.0" standalone="no"?>
<!DOCTYPE svg PUBLIC "-//W3C//DTD SVG 20010904//EN"
 "http://www.w3.org/TR/2001/REC-SVG-20010904/DTD/svg10.dtd">
<svg version="1.0" xmlns="http://www.w3.org/2000/svg"
 width="1536.000000pt" height="1024.000000pt" viewBox="0 0 1536.000000 1024.000000"
 preserveAspectRatio="xMidYMid meet">

<g transform="translate(0.000000,1024.000000) scale(0.100000,-0.100000)"
fill="#FFC107" stroke="currentColor" >
<path d="M4925 9940 c-570 -30 -1112 -276 -1530 -695 -382 -382 -632 -852
-739 -1385 -52 -259 -61 -355 -60 -655 1 -250 4 -299 28 -460 47 -313 87 -480
180 -760 73 -216 128 -349 227 -550 l69 -140 0 -105 c0 -335 88 -745 240
-1126 69 -173 118 -264 152 -283 22 -13 28 -23 28 -51 0 -95 -123 -569 -214
-825 -21 -59 -23 -73 -12 -90 37 -57 290 -228 483 -326 416 -210 896 -276
1348 -184 l119 24 143 -137 c582 -554 950 -860 1668 -1383 322 -235 978 -689
1007 -696 22 -6 25 27 38 407 24 677 55 1298 66 1309 5 5 197 -49 207 -59 5
-4 4 -160 -2 -346 -6 -187 -14 -549 -17 -807 -6 -386 -5 -467 6 -467 15 0 333
209 570 373 705 489 1487 1125 2060 1673 l105 100 141 36 c445 113 753 380
860 745 49 170 45 336 -22 743 -32 200 -65 369 -196 1032 l-51 257 70 108
c320 493 519 1073 584 1698 16 158 13 494 -6 660 -75 655 -331 1200 -770 1640
-151 152 -266 244 -449 357 -290 180 -589 293 -911 343 -148 23 -566 32 -718
15 -492 -54 -946 -248 -1368 -586 -202 -161 -482 -434 -671 -654 l-47 -55 -28
35 c-194 244 -501 538 -760 726 -321 235 -716 417 -1065 493 -197 42 -516 64
-763 51z m500 -346 c389 -47 830 -233 1155 -487 258 -202 560 -510 913 -930
27 -31 54 -57 61 -57 7 0 32 23 57 52 188 221 259 302 384 438 460 500 874
791 1302 916 213 62 305 76 543 82 442 9 735 -51 1078 -221 632 -314 1090
-973 1227 -1762 83 -484 0 -1099 -226 -1669 -43 -107 -199 -426 -208 -426 -3
0 -21 48 -40 105 -71 219 -189 423 -309 537 -89 84 -247 189 -392 260 -63 31
-245 108 -405 172 -324 128 -382 153 -389 165 -3 5 19 46 50 91 164 246 220
479 155 651 l-20 52 24 48 c14 26 37 83 51 126 36 105 37 253 4 358 -45 145
-142 295 -273 424 -158 156 -307 250 -497 315 -327 110 -696 52 -965 -151
-271 -205 -442 -492 -518 -866 -15 -78 -31 -127 -46 -148 -26 -34 -36 -115
-35 -279 0 -105 13 -145 65 -211 l31 -40 -15 -57 c-33 -116 -30 -228 9 -453 6
-35 5 -35 -37 -48 -67 -20 -217 -85 -316 -137 -183 -97 -327 -211 -460 -363
-81 -93 -218 -291 -248 -359 -11 -23 -21 -42 -25 -42 -3 0 -23 33 -44 73 -62
115 -177 304 -252 411 -160 230 -325 361 -554 436 -52 18 -98 35 -103 39 -4 4
28 61 71 127 176 267 259 419 287 529 17 68 20 208 4 252 -9 28 -7 36 30 84
44 58 44 60 45 159 1 45 13 104 38 188 45 148 58 220 58 332 0 399 -426 814
-945 921 -91 19 -324 16 -420 -6 -155 -34 -297 -105 -423 -212 l-53 -46 -37
17 c-71 30 -131 39 -234 33 -89 -5 -109 -9 -173 -41 -120 -59 -215 -172 -266
-316 -29 -83 -33 -273 -7 -330 43 -93 121 -161 264 -230 l61 -30 7 -103 c12
-183 49 -338 109 -450 33 -63 118 -147 148 -147 17 0 17 -2 2 -37 -9 -21 -33
-87 -53 -148 l-37 -110 -78 -33 c-101 -42 -165 -90 -209 -157 -45 -67 -66 -83
-180 -141 -308 -155 -504 -281 -661 -425 -132 -120 -228 -245 -280 -363 -14
-31 -27 -56 -29 -56 -6 0 -77 183 -114 295 -64 191 -118 412 -147 605 -22 145
-31 537 -16 682 93 856 574 1583 1276 1928 191 93 397 156 605 185 137 19 467
18 625 -1z m4074 -844 c225 -46 460 -184 638 -374 89 -95 141 -172 184 -273
32 -74 34 -85 33 -193 0 -104 -2 -122 -30 -190 l-30 -75 -97 3 c-101 4 -150
-6 -250 -51 -56 -25 -57 -24 -84 63 -22 69 -24 259 -4 345 12 56 16 61 55 80
68 33 107 141 77 217 -12 31 -48 68 -67 68 -41 0 -121 -202 -149 -380 -25
-160 -15 -344 24 -423 10 -20 16 -39 12 -41 -30 -18 -129 -36 -200 -36 -105 0
-161 15 -267 68 -118 60 -183 76 -274 69 -91 -7 -144 -25 -234 -79 -54 -33
-81 -43 -125 -46 l-56 -4 -53 60 c-62 72 -124 105 -239 128 -98 20 -96 14 -58
171 115 475 438 823 838 903 81 16 254 11 356 -10z m-3088 -247 c84 -92 119
-190 119 -332 0 -64 -30 -213 -50 -251 -5 -10 -34 -30 -64 -43 -65 -30 -88
-61 -93 -130 -17 -212 -36 -371 -49 -411 -9 -25 -30 -57 -47 -72 -29 -24 -37
-26 -96 -21 -69 5 -115 -5 -109 -26 2 -6 24 -22 48 -34 49 -25 129 -31 177
-12 63 23 119 103 128 181 3 24 7 57 9 73 3 17 5 58 5 93 1 54 3 62 20 62 31
0 45 -59 38 -159 -6 -89 -23 -153 -61 -231 -36 -71 -172 -273 -218 -324 -42
-45 -44 -46 -78 -36 -53 15 -225 13 -239 -4 -8 -10 -8 -16 1 -23 20 -16 78
-33 110 -33 16 0 45 -7 65 -15 l37 -16 -48 -48 c-27 -27 -71 -62 -99 -77 -50
-27 -53 -27 -121 -15 -96 16 -271 92 -353 153 -95 70 -153 128 -245 243 -98
123 -126 147 -152 133 -51 -27 34 -214 173 -376 64 -77 192 -175 293 -228 49
-25 88 -47 88 -49 0 -10 -27 -64 -52 -104 -32 -51 -36 -92 -12 -116 15 -14 19
-14 50 10 l34 26 0 -35 c0 -54 -57 -329 -91 -440 -28 -91 -61 -146 -88 -146
-10 0 -170 171 -248 265 -207 251 -393 560 -443 735 -34 120 -37 239 -10 357
12 54 36 136 52 183 28 79 127 289 150 317 19 24 1 43 -42 43 -144 0 -244 322
-155 502 43 88 73 111 148 116 70 5 143 -20 153 -51 8 -26 -13 -81 -41 -107
-14 -13 -25 -30 -25 -37 0 -8 34 -30 76 -50 73 -35 78 -36 164 -31 95 6 100 8
231 95 49 32 91 50 165 69 136 35 232 69 344 122 183 86 288 176 355 305 17
31 33 57 36 57 4 0 31 -26 60 -57z m3510 -311 c-15 -53 -41 -65 -31 -14 11 54
21 75 32 64 6 -6 5 -25 -1 -50z m-3427 -410 c24 -28 4 -82 -31 -82 -37 0 -63
18 -63 44 0 31 17 44 71 55 3 0 13 -7 23 -17z m1918 -192 c45 -13 93 -52 115
-93 20 -40 13 -129 -16 -185 -55 -107 -132 -150 -215 -118 -88 34 -116 87
-117 223 -1 100 15 161 44 173 31 12 144 12 189 0z m1836 -57 c42 -30 66 -88
65 -158 -1 -158 -128 -430 -241 -517 -31 -25 -44 -28 -112 -28 -46 0 -81 -5
-88 -12 -20 -20 -14 -63 13 -88 14 -13 25 -29 25 -36 0 -23 -103 -219 -166
-315 -82 -126 -163 -227 -278 -346 l-94 -98 -38 21 c-52 29 -118 39 -155 24
-31 -13 -37 -31 -16 -48 6 -5 42 -13 79 -17 37 -3 71 -11 74 -17 6 -9 -162
-188 -177 -188 -4 0 -9 12 -12 28 -3 15 -31 69 -62 120 -31 51 -55 98 -53 104
2 6 53 27 114 48 61 20 136 51 167 69 165 94 282 246 316 412 13 62 7 89 -18
89 -21 0 -42 -24 -105 -117 -26 -40 -77 -100 -113 -134 -112 -105 -206 -156
-392 -215 -93 -30 -115 -33 -200 -31 -112 4 -160 21 -233 86 -107 95 -235 365
-283 595 -17 86 -20 243 -4 299 10 38 16 41 66 31 26 -5 31 -11 41 -62 32
-154 135 -244 280 -243 119 0 196 43 223 123 12 37 11 42 -5 54 -23 16 -48 5
-85 -39 -30 -36 -94 -66 -139 -67 -43 0 -118 36 -141 69 -21 29 -61 140 -61
168 0 10 17 28 41 41 49 28 116 128 126 185 9 59 32 77 97 77 81 0 86 -4 86
-65 0 -116 68 -228 168 -277 66 -32 185 -31 259 1 97 43 174 154 188 273 l7
58 42 -8 c22 -4 93 -6 156 -6 142 2 225 24 330 90 152 95 243 115 308 67z
m-1032 -14 c24 -11 54 -37 70 -61 24 -34 29 -51 28 -97 -3 -144 -131 -264
-262 -245 -83 12 -125 44 -161 124 -59 130 6 266 144 301 44 11 134 0 181 -22z
m-4641 -739 c70 -334 273 -685 605 -1045 179 -195 220 -257 220 -337 0 -26 -3
-29 -22 -23 -13 4 -75 36 -140 71 -64 36 -164 87 -221 114 -62 29 -108 57
-111 67 -3 10 -10 55 -15 100 -6 46 -17 96 -26 112 -17 34 -51 61 -76 61 -9 0
-47 9 -84 21 -98 30 -159 93 -203 209 -95 253 -120 519 -59 636 26 52 96 120
108 106 3 -4 14 -45 24 -92z m5529 -129 c23 -25 34 -135 24 -223 -21 -173 -89
-416 -162 -574 -39 -84 -123 -224 -134 -224 -4 0 -22 9 -40 20 -28 17 -33 25
-30 52 3 28 -1 33 -27 41 -61 18 -100 43 -130 84 -16 23 -35 42 -42 42 -18 1
-43 -39 -49 -81 -4 -23 -17 -47 -35 -62 -16 -15 -29 -33 -29 -40 0 -8 -3 -21
-6 -30 -5 -13 1 -16 29 -16 28 0 80 -21 115 -46 9 -6 -119 -184 -188 -262 -88
-99 -155 -159 -254 -226 -70 -46 -112 -58 -122 -32 -10 26 16 178 45 264 63
186 140 297 369 528 239 243 368 403 507 629 110 181 124 195 159 156z m-5820
-151 c21 -278 120 -595 206 -658 28 -21 145 -57 215 -65 41 -5 55 -36 55 -127
0 -41 3 -84 6 -95 4 -15 69 -52 242 -135 246 -120 461 -241 499 -281 66 -72
70 -503 7 -824 -25 -130 -111 -460 -136 -522 -20 -50 -27 -58 -58 -65 -66 -16
-542 11 -562 31 -5 4 -30 92 -57 196 -27 105 -55 202 -62 217 -10 24 -10 31 4
46 25 27 22 65 -29 318 -125 629 -196 850 -345 1079 -61 93 -230 266 -275 282
-82 29 -70 -40 31 -176 239 -322 326 -554 454 -1211 16 -80 26 -148 24 -152
-2 -5 -28 -8 -56 -8 -108 0 -418 -73 -573 -135 -96 -39 -212 -100 -282 -148
-24 -16 -48 -25 -52 -21 -12 12 -104 255 -146 383 -147 447 -188 919 -108
1248 81 335 280 570 638 754 94 49 333 158 347 159 3 0 9 -41 13 -90z m1933
-31 c265 -92 402 -247 703 -792 77 -141 91 -173 86 -198 -22 -113 -277 -666
-335 -728 -25 -26 -34 -30 -49 -22 -44 23 -53 78 -62 380 -9 302 -24 421 -63
520 -19 47 -26 56 -47 56 -22 0 -27 -7 -44 -70 -17 -63 -19 -98 -16 -335 7
-471 4 -607 -15 -715 -54 -309 -210 -634 -360 -747 -27 -21 -79 -48 -115 -59
-111 -35 -400 -49 -400 -19 0 4 9 36 20 71 30 98 107 414 124 509 57 318 60
631 8 830 -17 63 -27 120 -24 126 4 6 54 54 112 106 125 112 213 207 234 253
22 46 20 84 -9 141 l-25 49 49 42 c65 57 81 83 92 156 17 102 -23 333 -72 415
-25 44 -24 50 9 55 70 11 116 5 199 -24z m4213 -18 c517 -188 801 -355 945
-556 155 -217 271 -597 420 -1385 147 -774 179 -999 172 -1185 -6 -153 -22
-218 -83 -340 -102 -208 -282 -360 -522 -441 -227 -77 -575 -124 -914 -124
l-188 0 36 64 c44 80 53 110 64 214 11 106 -2 234 -36 337 -32 97 -44 122
-100 203 -29 41 -39 64 -31 67 6 2 77 18 157 35 80 17 249 55 375 85 294 69
331 75 434 75 132 0 238 -36 307 -102 58 -54 100 -11 65 66 -42 95 -177 168
-347 187 -94 10 -113 14 -103 23 2 2 47 28 99 58 159 93 247 148 260 163 10
12 7 16 -15 25 -14 5 -42 10 -61 10 -70 0 -320 -108 -412 -178 -18 -14 -34
-23 -37 -21 -2 2 -9 45 -15 94 -6 50 -22 155 -35 235 -48 288 -57 388 -58 615
0 236 12 348 59 545 45 192 117 369 195 480 61 87 42 113 -49 68 -139 -70
-253 -338 -319 -754 -13 -82 -17 -172 -18 -362 l0 -254 -25 30 c-14 17 -58 89
-99 161 -41 72 -82 138 -92 147 -47 43 -52 -35 -10 -164 45 -137 79 -196 197
-339 51 -63 43 -258 -18 -448 -63 -196 -145 -265 -353 -301 -22 -4 -101 -22
-175 -41 -74 -19 -184 -43 -245 -54 -166 -29 -247 -50 -277 -70 -14 -11 -32
-19 -40 -19 -23 0 -133 120 -193 210 -129 194 -228 445 -294 745 -42 188 -55
292 -55 449 l-1 139 78 43 c217 120 376 266 596 546 l61 78 67 -36 c110 -58
133 -43 234 161 102 206 191 494 234 758 10 59 21 107 24 107 4 0 67 -22 141
-49z m-4593 -10 c50 -23 87 -77 108 -158 17 -64 20 -199 6 -236 -13 -34 -55
-72 -119 -109 -63 -36 -92 -71 -92 -109 0 -23 8 -32 42 -50 61 -31 71 -44 63
-82 -13 -59 -19 -65 -299 -296 -18 -15 -19 -14 -12 23 4 22 28 107 52 190 93
314 133 517 150 759 6 86 6 87 32 87 15 0 46 -9 69 -19z m2850 -460 c56 -11
115 -26 130 -35 53 -27 191 -185 179 -205 -9 -14 -79 4 -128 33 -49 29 -125
42 -180 32 -18 -3 -56 -24 -85 -46 l-52 -39 -7 35 c-10 52 1 163 19 207 9 20
17 37 19 37 2 0 49 -9 105 -19z m253 -362 c41 -12 87 -26 101 -32 l26 -11 -54
-105 c-48 -95 -73 -172 -99 -305 -4 -24 -7 -27 -18 -15 -27 30 -161 246 -208
336 -56 106 -56 110 17 137 58 21 149 19 235 -5z m-1276 -587 c18 -238 21
-537 5 -487 -25 78 -60 295 -70 432 -11 150 0 428 19 457 9 15 27 -139 46
-402z m-354 -572 c39 -6 102 -28 157 -55 80 -38 97 -50 123 -91 29 -46 39 -84
22 -84 -4 0 -52 11 -107 25 -130 33 -350 39 -429 10 -73 -25 -99 -44 -85 -61
9 -11 50 -14 183 -13 338 1 506 -54 506 -168 0 -52 -5 -53 -91 -14 -145 65
-389 99 -518 71 -66 -14 -103 -42 -82 -63 7 -7 68 -14 169 -18 223 -10 421
-62 452 -119 21 -39 1 -44 -107 -29 -155 21 -314 17 -399 -9 -82 -25 -125 -54
-108 -72 7 -7 77 -12 205 -14 143 -2 213 -7 266 -20 64 -15 104 -38 91 -51 -2
-3 -65 -9 -139 -14 -264 -20 -399 -76 -625 -262 -268 -221 -1203 -473 -1938
-521 -289 -19 -480 2 -607 67 -107 55 -274 267 -388 493 -45 89 -122 281 -161
399 l-33 102 24 20 c95 78 363 178 583 217 78 14 100 15 125 4 36 -14 93 -96
125 -178 26 -66 60 -198 58 -226 0 -10 -19 -35 -41 -55 -23 -21 -41 -43 -41
-49 0 -37 105 -61 390 -87 492 -45 1099 -19 1356 60 120 36 153 71 337 348
171 256 247 341 353 395 125 63 242 82 374 62z m380 -1008 c66 -19 237 -100
279 -131 l23 -17 -42 -29 c-64 -44 -154 -148 -193 -223 -43 -81 -77 -199 -77
-264 0 -27 -3 -48 -6 -48 -3 0 -47 27 -99 59 -221 139 -453 343 -475 418 -36
121 68 223 260 253 81 13 255 3 330 -18z m1303 -95 c76 -35 209 -112 263 -152
24 -19 36 -41 57 -112 39 -130 49 -180 50 -263 1 -75 -20 -150 -42 -150 -6 0
-27 33 -47 73 -45 89 -80 140 -155 228 -114 132 -296 244 -315 194 -5 -12 27
-50 118 -143 139 -142 183 -199 228 -293 38 -80 42 -157 9 -188 -26 -24 -45
-18 -66 23 -8 17 -40 63 -70 103 -120 157 -355 343 -435 343 -47 0 -33 -25 65
-117 247 -235 317 -318 317 -380 0 -26 -25 -53 -50 -53 -10 0 -74 48 -142 106
-68 59 -145 123 -173 144 -27 20 -70 54 -93 74 -24 20 -48 36 -52 36 -5 0 -35
-23 -67 -51 -72 -64 -151 -116 -206 -135 -38 -13 -46 -13 -85 2 -59 22 -74 57
-61 138 29 182 244 394 557 550 151 76 266 82 395 23z m1075 -152 c114 -105
169 -256 159 -437 -6 -126 -26 -187 -81 -243 -47 -49 -91 -65 -185 -65 -72 0
-68 -10 -36 100 37 130 12 334 -59 482 -39 82 -101 163 -131 174 -26 10 136
41 217 43 56 1 58 0 116 -54z m-1920 -42 c-77 -74 -173 -219 -198 -301 -28
-90 -26 -176 4 -229 13 -23 22 -44 19 -47 -8 -7 -69 20 -101 45 -39 30 -61 77
-62 131 -1 214 185 458 351 458 l48 0 -61 -57z m1435 -26 c73 -31 159 -136
191 -235 52 -158 31 -361 -42 -404 -15 -9 -78 -23 -140 -32 -309 -45 -458
-150 -506 -356 -18 -75 -34 -95 -69 -86 -40 10 -70 61 -75 128 -4 51 0 67 28
125 47 95 90 133 224 196 194 93 266 182 274 341 3 65 -2 100 -23 176 -36 132
-36 131 5 146 47 17 94 17 133 1z m-3025 -96 c174 -149 545 -362 907 -521 66
-29 124 -56 128 -60 5 -4 2 -176 -7 -381 -9 -206 -21 -520 -27 -699 -6 -179
-14 -329 -19 -334 -18 -18 -538 345 -765 535 -109 92 -401 372 -415 400 -6 9
-17 104 -25 211 -27 339 -52 489 -117 692 -26 82 -29 101 -17 105 24 10 283
98 292 99 5 1 34 -20 65 -47z m2006 -458 c23 -15 69 -53 103 -85 34 -32 70
-58 80 -58 13 0 4 -13 -33 -49 -61 -59 -110 -151 -119 -225 -9 -69 13 -146 60
-215 l35 -51 -42 0 c-100 1 -164 63 -188 181 -21 107 25 265 102 345 36 38 34
68 -4 72 -37 4 -106 -60 -145 -135 -33 -63 -63 -169 -63 -224 0 -36 22 -141
35 -171 19 -45 -89 3 -131 57 -22 29 -28 49 -32 108 -10 165 78 343 222 449
49 35 69 35 120 1z m321 -233 c3 -6 -6 -41 -21 -78 -25 -63 -26 -73 -21 -179
5 -95 4 -112 -9 -117 -74 -28 -144 48 -144 156 0 79 51 186 103 215 27 15 83
17 92 3z m571 -107 c75 -78 130 -248 143 -441 12 -173 -5 -228 -81 -268 -37
-19 -67 -18 -106 6 -52 32 -67 79 -53 170 23 155 14 215 -49 301 -64 89 -71
142 -24 205 25 34 77 63 112 64 13 0 37 -16 58 -37z"/>
<path d="M8683 8093 c-12 -2 -27 -11 -33 -18 -21 -25 -3 -29 320 -71 163 -21
260 -15 260 15 0 31 -454 92 -547 74z"/>
<path d="M8599 7941 l-23 -18 21 -11 c46 -25 219 -46 383 -46 143 -1 170 1
193 17 15 10 25 22 22 27 -4 6 -39 10 -79 10 -39 0 -159 9 -266 20 -235 24
-223 24 -251 1z"/>
<path d="M4857 8079 c-32 -19 -50 -70 -51 -148 -1 -66 1 -76 18 -79 24 -5 36
14 36 61 0 20 4 37 10 37 13 0 30 -34 30 -63 0 -14 7 -31 16 -38 14 -11 18
-10 31 6 23 31 14 165 -13 202 -23 31 -49 38 -77 22z"/>
<path d="M5901 7979 c-47 -5 -102 -14 -122 -19 -43 -12 -89 -46 -89 -66 0 -18
22 -22 155 -28 61 -3 128 -8 150 -12 56 -9 89 18 87 71 -1 21 -6 43 -11 48
-14 14 -78 16 -170 6z"/>
<path d="M5788 7769 c-28 -11 -42 -34 -32 -51 4 -6 26 -19 50 -30 30 -13 44
-25 44 -38 0 -25 49 -70 75 -70 46 0 95 64 95 123 0 32 -17 45 -84 62 -64 17
-109 18 -148 4z"/>
<path d="M5708 7089 c-49 -28 14 -97 119 -129 40 -12 110 -23 173 -27 93 -5
108 -3 128 13 30 24 22 44 -26 66 -140 65 -347 105 -394 77z"/>
<path d="M8350 7482 c-28 -23 -44 -102 -28 -137 16 -35 23 -32 42 20 22 57 36
57 36 1 0 -51 16 -68 37 -40 22 31 27 65 13 103 -24 70 -58 87 -100 53z"/>
<path d="M10055 7395 c-26 -27 -36 -49 -46 -104 -15 -89 -4 -155 27 -159 24
-3 38 25 48 92 6 44 10 51 26 41 9 -5 10 -28 6 -76 -6 -56 -5 -69 7 -69 37 0
67 77 67 172 0 69 -12 99 -50 121 -39 24 -48 22 -85 -18z"/>
<path d="M9023 6833 c-23 -9 -14 -28 41 -91 29 -34 77 -108 106 -165 29 -56
54 -103 55 -105 2 -2 13 1 24 8 33 17 28 81 -14 169 -48 99 -70 128 -123 162
-45 28 -64 33 -89 22z"/>
<path d="M8432 6646 c-19 -10 -21 -14 -9 -24 27 -23 155 -43 313 -49 134 -5
165 -3 190 10 l29 16 -40 17 c-29 12 -78 18 -180 21 -77 2 -164 9 -194 14 -70
12 -81 11 -109 -5z"/>
<path d="M9030 7435 c-11 -13 -8 -21 18 -48 22 -23 32 -43 32 -64 0 -38 13
-49 34 -27 26 25 21 100 -9 129 -28 28 -57 32 -75 10z"/>
</g>
</svg>
